<?xml version="1.0" encoding="UTF-8" standalone="no"?>
<!DOCTYPE svg PUBLIC "-//W3C//DTD SVG 1.1//EN" "http://www.w3.org/Graphics/SVG/1.1/DTD/svg11.dtd">
<svg width="100%" height="100%" viewBox="0 0 500 500" version="1.1" xmlns="http://www.w3.org/2000/svg" xmlns:xlink="http://www.w3.org/1999/xlink" xml:space="preserve" xmlns:serif="http://www.serif.com/" style="fill-rule:evenodd;clip-rule:evenodd;stroke-linejoin:round;stroke-miterlimit:2;">
    <g transform="matrix(1,0,0,1,-0.0528278,9.36388)">
        <g>
            <path d="M250.492,349.706C250.449,349.468 250.242,349.295 250,349.295C249.758,349.295 249.551,349.468 249.508,349.706C247.394,361.331 239.144,406.71 238.107,412.411C238.081,412.556 238.12,412.707 238.215,412.82C238.31,412.934 238.451,413 238.599,413L261.401,413C261.549,413 261.69,412.934 261.785,412.82C261.88,412.707 261.919,412.556 261.893,412.411C260.856,406.71 252.606,361.331 250.492,349.706ZM204.853,379.184C204.345,378.479 204.351,377.526 204.867,376.827C209.451,370.625 230.86,341.659 236.588,333.911C236.728,333.72 236.983,333.655 237.198,333.753C237.413,333.851 237.53,334.087 237.478,334.318C234.948,345.542 224.02,394.036 222.244,401.916C222.201,402.108 222.049,402.257 221.856,402.296C221.664,402.335 221.466,402.258 221.351,402.098C218.606,398.286 207.955,383.493 204.853,379.184ZM295.147,379.184C295.655,378.479 295.649,377.526 295.133,376.827C290.549,370.625 269.14,341.659 263.412,333.911C263.272,333.72 263.017,333.655 262.802,333.753C262.587,333.851 262.47,334.087 262.522,334.318C265.052,345.542 275.98,394.036 277.756,401.916C277.799,402.108 277.951,402.257 278.144,402.296C278.336,402.335 278.534,402.258 278.649,402.098C281.394,398.286 292.045,383.493 295.147,379.184ZM63.751,105.206C63.557,105.051 63.507,104.776 63.634,104.561C63.761,104.347 64.026,104.259 64.256,104.355C82.8,112.069 174.615,150.264 185.037,154.599C185.661,154.859 186.179,155.321 186.507,155.912C190.769,163.585 220.601,217.282 225.36,225.849C225.461,226.03 225.664,226.131 225.869,226.101C226.075,226.071 226.241,225.917 226.286,225.715C227.904,218.431 235.913,182.39 237.662,174.52C237.874,173.567 238.536,172.777 239.437,172.401C241.787,171.422 246.417,169.493 248.685,168.548C249.517,168.201 250.461,168.247 251.256,168.673C256.002,171.216 272.796,180.212 277.027,182.479C277.2,182.571 277.303,182.757 277.29,182.953C277.277,183.149 277.15,183.319 276.966,183.388C274.294,184.39 267.129,187.077 263.776,188.334C262.78,188.707 262.251,189.795 262.571,190.809C264.676,197.475 271.965,220.555 273.65,225.892C273.71,226.083 273.878,226.219 274.077,226.239C274.275,226.259 274.467,226.159 274.564,225.985C279.074,217.868 309.207,163.627 313.493,155.912C313.821,155.321 314.339,154.859 314.963,154.599C325.405,150.256 417.552,111.922 435.849,104.311C436.079,104.215 436.343,104.302 436.47,104.515C436.598,104.728 436.55,105.002 436.358,105.159C420.822,117.857 341.824,182.423 335.414,187.662C335.14,187.886 334.908,188.156 334.729,188.46C329.711,196.96 256.753,320.56 250.436,331.262C250.345,331.415 250.18,331.509 250.003,331.508C249.825,331.507 249.661,331.411 249.572,331.257C243.393,320.538 172.325,197.238 167.282,188.489C167.096,188.166 166.851,187.88 166.56,187.647C159.899,182.306 79.709,118.003 63.751,105.206ZM132.676,215.374C132.487,215.201 132.46,214.912 132.614,214.706C132.768,214.501 133.053,214.445 133.273,214.578C144.745,221.499 175.683,240.163 180.569,243.111C180.998,243.37 181.355,243.732 181.608,244.164C183.908,248.093 195.862,268.515 200.321,276.132C200.446,276.345 200.396,276.618 200.203,276.773C200.011,276.929 199.734,276.92 199.551,276.753C188.784,266.87 145.606,227.241 132.676,215.374ZM367.324,215.374C367.513,215.201 367.54,214.912 367.386,214.706C367.232,214.501 366.947,214.445 366.727,214.578C355.255,221.499 324.317,240.163 319.431,243.111C319.002,243.37 318.645,243.732 318.392,244.164C316.092,248.093 304.138,268.515 299.679,276.132C299.554,276.345 299.604,276.618 299.797,276.773C299.989,276.929 300.266,276.92 300.449,276.753C311.216,266.87 354.394,227.241 367.324,215.374ZM72.568,130.425C72.416,130.222 72.44,129.937 72.624,129.762C72.808,129.587 73.094,129.578 73.288,129.74C88.096,142.08 148.103,192.086 153.597,196.664C153.864,196.886 154.09,197.153 154.265,197.453C156.12,200.622 167.183,219.521 170.658,225.458C170.775,225.657 170.74,225.91 170.574,226.07C170.407,226.231 170.153,226.256 169.958,226.132C161.609,220.823 125.937,198.139 121.462,195.294C121.156,195.099 120.889,194.852 120.672,194.562C116.933,189.578 82.353,143.471 72.568,130.425ZM427.432,130.425C427.584,130.222 427.56,129.937 427.376,129.762C427.192,129.587 426.906,129.578 426.712,129.74C411.904,142.08 351.897,192.086 346.403,196.664C346.136,196.886 345.91,197.153 345.735,197.453C343.88,200.622 332.817,219.521 329.342,225.458C329.225,225.657 329.26,225.91 329.426,226.07C329.593,226.231 329.847,226.256 330.042,226.132C338.391,220.823 374.063,198.139 378.538,195.294C378.844,195.099 379.111,194.852 379.328,194.562C383.067,189.578 417.647,143.471 427.432,130.425Z" style="fill:rgb(207,23,23);"/>
        </g>
    </g>
</svg>
