<?xml version="1.0" encoding="UTF-8" standalone="no"?>
<!DOCTYPE svg PUBLIC "-//W3C//DTD SVG 1.1//EN" "http://www.w3.org/Graphics/SVG/1.1/DTD/svg11.dtd">
<svg width="100%" height="100%" viewBox="0 0 3840 2160" version="1.1" xmlns="http://www.w3.org/2000/svg" xmlns:xlink="http://www.w3.org/1999/xlink" xml:space="preserve" xmlns:serif="http://www.serif.com/" style="fill-rule:evenodd;clip-rule:evenodd;stroke-linejoin:round;stroke-miterlimit:2;">
    <g>
        <g transform="matrix(3.92886,0,0,3.92886,937.577,-103.62)">
            <g id="nl1.svg">
                <g>
                    <g>
                        <g>
                            <path d="M250.492,349.706C250.449,349.468 250.242,349.295 250,349.295C249.758,349.295 249.551,349.468 249.508,349.706C247.394,361.331 239.144,406.71 238.107,412.411C238.081,412.556 238.12,412.707 238.215,412.82C238.31,412.934 238.451,413 238.599,413L261.401,413C261.549,413 261.69,412.934 261.785,412.82C261.88,412.707 261.919,412.556 261.893,412.411C260.856,406.71 252.606,361.331 250.492,349.706ZM204.853,379.184C204.345,378.479 204.351,377.526 204.867,376.827C209.451,370.625 230.86,341.659 236.588,333.911C236.728,333.72 236.983,333.655 237.198,333.753C237.413,333.851 237.53,334.087 237.478,334.318C234.948,345.542 224.02,394.036 222.244,401.916C222.201,402.108 222.049,402.257 221.856,402.296C221.664,402.335 221.466,402.258 221.351,402.098C218.606,398.286 207.955,383.493 204.853,379.184ZM295.147,379.184C295.655,378.479 295.649,377.526 295.133,376.827C290.549,370.625 269.14,341.659 263.412,333.911C263.272,333.72 263.017,333.655 262.802,333.753C262.587,333.851 262.47,334.087 262.522,334.318C265.052,345.542 275.98,394.036 277.756,401.916C277.799,402.108 277.951,402.257 278.144,402.296C278.336,402.335 278.534,402.258 278.649,402.098C281.394,398.286 292.045,383.493 295.147,379.184ZM63.751,105.206C63.557,105.051 63.507,104.776 63.634,104.561C63.761,104.347 64.026,104.259 64.256,104.355C82.8,112.069 174.615,150.264 185.037,154.599C185.661,154.859 186.179,155.321 186.507,155.912C190.769,163.585 220.601,217.282 225.36,225.849C225.461,226.03 225.664,226.131 225.869,226.101C226.075,226.071 226.241,225.917 226.286,225.715C227.904,218.431 235.913,182.39 237.662,174.52C237.874,173.567 238.536,172.777 239.437,172.401C241.787,171.422 246.417,169.493 248.685,168.548C249.517,168.201 250.461,168.247 251.256,168.673C256.002,171.216 272.796,180.212 277.027,182.479C277.2,182.571 277.303,182.757 277.29,182.953C277.277,183.149 277.15,183.319 276.966,183.388C274.294,184.39 267.129,187.077 263.776,188.334C262.78,188.707 262.251,189.795 262.571,190.809C264.676,197.475 271.965,220.555 273.65,225.892C273.71,226.083 273.878,226.219 274.077,226.239C274.275,226.259 274.467,226.159 274.564,225.985C279.074,217.868 309.207,163.627 313.493,155.912C313.821,155.321 314.339,154.859 314.963,154.599C325.405,150.256 417.552,111.922 435.849,104.311C436.079,104.215 436.343,104.302 436.47,104.515C436.598,104.728 436.55,105.002 436.358,105.159C420.822,117.857 341.824,182.423 335.414,187.662C335.14,187.886 334.908,188.156 334.729,188.46C329.711,196.96 256.753,320.56 250.436,331.262C250.345,331.415 250.18,331.509 250.003,331.508C249.825,331.507 249.661,331.411 249.572,331.257C243.393,320.538 172.325,197.238 167.282,188.489C167.096,188.166 166.851,187.88 166.56,187.647C159.899,182.306 79.709,118.003 63.751,105.206ZM132.676,215.374C132.487,215.201 132.46,214.912 132.614,214.706C132.768,214.501 133.053,214.445 133.273,214.578C144.745,221.499 175.683,240.163 180.569,243.111C180.998,243.37 181.355,243.732 181.608,244.164C183.908,248.093 195.862,268.515 200.321,276.132C200.446,276.345 200.396,276.618 200.203,276.773C200.011,276.929 199.734,276.92 199.551,276.753C188.784,266.87 145.606,227.241 132.676,215.374ZM367.324,215.374C367.513,215.201 367.54,214.912 367.386,214.706C367.232,214.501 366.947,214.445 366.727,214.578C355.255,221.499 324.317,240.163 319.431,243.111C319.002,243.37 318.645,243.732 318.392,244.164C316.092,248.093 304.138,268.515 299.679,276.132C299.554,276.345 299.604,276.618 299.797,276.773C299.989,276.929 300.266,276.92 300.449,276.753C311.216,266.87 354.394,227.241 367.324,215.374ZM72.568,130.425C72.416,130.222 72.44,129.937 72.624,129.762C72.808,129.587 73.094,129.578 73.288,129.74C88.096,142.08 148.103,192.086 153.597,196.664C153.864,196.886 154.09,197.153 154.265,197.453C156.12,200.622 167.183,219.521 170.658,225.458C170.775,225.657 170.74,225.91 170.574,226.07C170.407,226.231 170.153,226.256 169.958,226.132C161.609,220.823 125.937,198.139 121.462,195.294C121.156,195.099 120.889,194.852 120.672,194.562C116.933,189.578 82.353,143.471 72.568,130.425ZM427.432,130.425C427.584,130.222 427.56,129.937 427.376,129.762C427.192,129.587 426.906,129.578 426.712,129.74C411.904,142.08 351.897,192.086 346.403,196.664C346.136,196.886 345.91,197.153 345.735,197.453C343.88,200.622 332.817,219.521 329.342,225.458C329.225,225.657 329.26,225.91 329.426,226.07C329.593,226.231 329.847,226.256 330.042,226.132C338.391,220.823 374.063,198.139 378.538,195.294C378.844,195.099 379.111,194.852 379.328,194.562C383.067,189.578 417.647,143.471 427.432,130.425Z"/>
                        </g>
                    </g>
                </g>
            </g>
        </g>
        <g transform="matrix(0.171386,0,0,-0.171386,688.603,1886.94)">
            <g id="final-red.svg">
                <g>
                    <g>
                        <g>
                            <path d="M12235,1480C12101,1459 11978,1400 11875,1309C11679,1135 11645,1048 11653,740C11657,547 11664,520 11725,424C11803,303 11925,199 12062,136C12173,85 12224,76 12374,83C12592,92 12754,155 12875,278L12922,325L12883,358C12789,440 12727,448 12591,395C12542,376 12470,355 12432,349C12295,326 12145,376 12051,474C11960,571 11925,672 11932,819C11938,942 11967,1008 12055,1095C12159,1199 12284,1244 12414,1222C12450,1216 12536,1189 12606,1160L12732,1109L12794,1144C12827,1163 12874,1192 12898,1208L12941,1237L12873,1301C12795,1375 12690,1430 12572,1461C12483,1485 12323,1493 12235,1480Z" style="fill-rule:nonzero;"/>
                            <path d="M13150,1485L13150,90L13453,90L13447,398C13443,567 13440,877 13440,1087L13440,1468L13378,1474C13343,1477 13278,1481 13233,1482L13150,1485Z" style="fill-rule:nonzero;"/>
                            <path d="M22,789L25,95L325,95L330,532C333,772 337,971 340,974C343,977 430,858 534,710C637,561 775,368 841,280C944,142 965,120 997,110C1046,96 1270,84 1270,96C1270,101 1211,186 1138,285C1066,384 885,638 737,850C451,1258 339,1409 295,1450C270,1473 260,1475 144,1479L20,1482L22,789Z" style="fill-rule:nonzero;"/>
                            <path d="M1000,1480L1000,634L1047,569C1073,534 1132,453 1179,390L1265,276L1271,405C1275,477 1278,748 1279,1008L1280,1480L1000,1480Z" style="fill-rule:nonzero;"/>
                            <path d="M1560,1480L1560,1230L1863,1231C2029,1232 2266,1235 2389,1239L2614,1245L2656,1324C2680,1368 2703,1421 2708,1442L2718,1480L1560,1480Z" style="fill-rule:nonzero;"/>
                            <path d="M2867,1468C2877,1450 3290,908 3304,892C3313,883 3329,898 3377,962C3448,1060 3472,1104 3468,1131C3466,1142 3411,1225 3345,1315L3225,1480L3042,1480C2898,1480 2860,1477 2867,1468Z" style="fill-rule:nonzero;"/>
                            <path d="M3940,1469C3905,1463 3886,1451 3856,1418C3794,1349 3613,1111 3223,585L2859,95L2947,92C3081,88 3186,103 3217,132C3253,165 3502,488 3817,907C4108,1296 4220,1451 4220,1469C4220,1482 4009,1482 3940,1469Z" style="fill-rule:nonzero;"/>
                            <path d="M4390,1480L4390,1230L4850,1230L4852,663L4855,95L4993,92L5130,89L5131,162C5132,202 5136,456 5139,725L5145,1215L5327,1227C5433,1234 5523,1245 5542,1253C5568,1264 5584,1283 5612,1336C5632,1374 5653,1422 5658,1443L5668,1480L4390,1480Z" style="fill-rule:nonzero;"/>
                            <path d="M5830,1480L5830,87L6012,93C6111,97 6323,100 6481,100L6769,100L6819,201C6847,256 6870,313 6870,326L6870,350L6131,350L6128,863C6125,1439 6127,1421 6050,1460C6019,1476 5991,1480 5920,1480L5830,1480Z" style="fill-rule:nonzero;"/>
                            <path d="M7570,1471L7536,1465L7264,785C7007,141 6993,105 7014,99C7025,96 7096,96 7169,99L7304,105L7355,235C7605,864 7657,994 7693,1072L7734,1162L7756,1117C7778,1074 7984,560 8106,243L8165,90L8317,90C8407,90 8470,94 8470,100C8470,114 8069,1130 8016,1250C7990,1308 7954,1376 7936,1401C7886,1469 7854,1480 7718,1479C7656,1478 7589,1475 7570,1471Z" style="fill-rule:nonzero;"/>
                            <path d="M8640,1108C8640,741 8649,552 8672,461C8713,291 8881,142 9085,94C9190,70 9371,79 9469,114C9647,177 9757,282 9817,448C9849,535 9863,781 9858,1142C9855,1384 9854,1400 9834,1427C9805,1466 9750,1483 9662,1477C9622,1475 9588,1471 9586,1469C9583,1467 9577,1290 9571,1076C9564,862 9555,653 9549,611C9530,474 9485,407 9383,363C9328,339 9170,339 9108,363C9050,385 8969,471 8952,526C8928,606 8920,756 8920,1113L8920,1480L8640,1480L8640,1108Z" style="fill-rule:nonzero;"/>
                            <path d="M10130,1482L10130,90L10430,90L10430,298C10430,413 10433,615 10437,747L10443,988L10605,755C10956,250 11045,135 11098,113C11121,103 11182,96 11259,92L11384,87L11360,121C11346,140 11270,245 11191,355C11111,465 10942,704 10814,886C10591,1206 10473,1367 10412,1439L10383,1474L10257,1478L10130,1482Z" style="fill-rule:nonzero;"/>
                            <path d="M11100,1480L11100,640L11189,517C11238,450 11298,369 11323,338L11367,280L11374,326C11377,352 11380,622 11380,926L11380,1480L11100,1480Z" style="fill-rule:nonzero;"/>
                            <path d="M14076,1419C14073,1385 14070,1278 14069,1181C14069,1084 14065,985 14062,960L14055,915L13888,908C13646,899 13631,890 13560,711C13543,668 13543,661 13556,656C13565,653 13684,650 13821,650L14070,650L14072,372L14075,95L14213,92L14350,89L14350,703C14350,1330 14346,1403 14311,1450C14294,1474 14287,1475 14188,1478L14083,1481L14076,1419Z" style="fill-rule:nonzero;"/>
                            <path d="M1560,900L1560,667L1742,673C1841,677 2021,680 2140,680L2357,680L2393,758C2414,801 2430,845 2430,857C2430,896 2390,900 1964,900L1560,900Z" style="fill-rule:nonzero;"/>
                            <path d="M3762,655C3729,631 3618,471 3626,457C3648,421 3873,110 3885,100C3902,86 4193,90 4207,104C4218,115 4196,149 4032,379C3891,576 3814,670 3794,670C3789,670 3775,663 3762,655Z" style="fill-rule:nonzero;"/>
                            <path d="M1560,353L1560,87L2058,93C2331,97 2571,103 2590,107C2622,114 2629,123 2667,200C2727,321 2728,326 2688,334C2670,337 2409,343 2108,346L1560,353Z" style="fill-rule:nonzero;"/>
                        </g>
                    </g>
                </g>
            </g>
        </g>
    </g>
</svg>
